<mxfile host="app.diagrams.net" modified="2024-04-21T11:19:08.964Z" agent="Mozilla/5.0 (Windows NT 10.0; Win64; x64) AppleWebKit/537.36 (KHTML, like Gecko) Chrome/124.0.0.0 Safari/537.36" etag="Fd5R37steH-RffJRtX9E" version="24.2.7" type="device">
  <diagram name="Page-1" id="WcT_e_i12XEKV0xqMjIA">
    <mxGraphModel dx="794" dy="446" grid="1" gridSize="10" guides="1" tooltips="1" connect="1" arrows="1" fold="1" page="1" pageScale="1" pageWidth="850" pageHeight="1100" math="0" shadow="0">
      <root>
        <mxCell id="0" />
        <mxCell id="1" parent="0" />
        <mxCell id="oaz3JPrWkLPxLvCyIipO-2" value="" style="rounded=0;whiteSpace=wrap;html=1;" parent="1" vertex="1">
          <mxGeometry x="140" y="20" width="480" height="330" as="geometry" />
        </mxCell>
        <mxCell id="oaz3JPrWkLPxLvCyIipO-4" value="Admin" style="shape=umlActor;verticalLabelPosition=bottom;verticalAlign=top;html=1;outlineConnect=0;" parent="1" vertex="1">
          <mxGeometry x="670" y="30" width="30" height="60" as="geometry" />
        </mxCell>
        <mxCell id="oaz3JPrWkLPxLvCyIipO-5" value="Login" style="ellipse;whiteSpace=wrap;html=1;" parent="1" vertex="1">
          <mxGeometry x="315" y="30" width="105" height="70" as="geometry" />
        </mxCell>
        <mxCell id="oaz3JPrWkLPxLvCyIipO-7" value="User" style="shape=umlActor;verticalLabelPosition=bottom;verticalAlign=top;html=1;outlineConnect=0;" parent="1" vertex="1">
          <mxGeometry x="70" y="30" width="30" height="60" as="geometry" />
        </mxCell>
        <mxCell id="oaz3JPrWkLPxLvCyIipO-9" value="" style="endArrow=classic;html=1;rounded=0;entryX=0;entryY=0.5;entryDx=0;entryDy=0;" parent="1" target="oaz3JPrWkLPxLvCyIipO-5" edge="1" source="oaz3JPrWkLPxLvCyIipO-7">
          <mxGeometry width="50" height="50" relative="1" as="geometry">
            <mxPoint x="90" y="190" as="sourcePoint" />
            <mxPoint x="331" y="90" as="targetPoint" />
          </mxGeometry>
        </mxCell>
        <mxCell id="CYdt1mf9dizqmsbDruAF-17" value="Includes" style="edgeStyle=orthogonalEdgeStyle;rounded=0;orthogonalLoop=1;jettySize=auto;html=1;" edge="1" parent="1" source="oaz3JPrWkLPxLvCyIipO-10" target="CYdt1mf9dizqmsbDruAF-16">
          <mxGeometry relative="1" as="geometry" />
        </mxCell>
        <mxCell id="oaz3JPrWkLPxLvCyIipO-10" value="Select Theatre" style="ellipse;whiteSpace=wrap;html=1;" parent="1" vertex="1">
          <mxGeometry x="170" y="190" width="90" height="50" as="geometry" />
        </mxCell>
        <mxCell id="oaz3JPrWkLPxLvCyIipO-11" value="Add Movie" style="ellipse;whiteSpace=wrap;html=1;" parent="1" vertex="1">
          <mxGeometry x="520" y="100" width="70" height="50" as="geometry" />
        </mxCell>
        <mxCell id="oaz3JPrWkLPxLvCyIipO-12" value="Select Movie" style="ellipse;whiteSpace=wrap;html=1;" parent="1" vertex="1">
          <mxGeometry x="170" y="100" width="90" height="50" as="geometry" />
        </mxCell>
        <mxCell id="oaz3JPrWkLPxLvCyIipO-13" value="Remove Movie" style="ellipse;whiteSpace=wrap;html=1;" parent="1" vertex="1">
          <mxGeometry x="515" y="160" width="75" height="50" as="geometry" />
        </mxCell>
        <mxCell id="CYdt1mf9dizqmsbDruAF-10" value="" style="endArrow=classic;html=1;rounded=0;entryX=1;entryY=0.5;entryDx=0;entryDy=0;" edge="1" parent="1" source="oaz3JPrWkLPxLvCyIipO-4" target="oaz3JPrWkLPxLvCyIipO-5">
          <mxGeometry width="50" height="50" relative="1" as="geometry">
            <mxPoint x="380" y="160" as="sourcePoint" />
            <mxPoint x="430" y="110" as="targetPoint" />
          </mxGeometry>
        </mxCell>
        <mxCell id="CYdt1mf9dizqmsbDruAF-12" value="" style="endArrow=classic;html=1;rounded=0;entryX=1;entryY=0.5;entryDx=0;entryDy=0;" edge="1" parent="1" source="oaz3JPrWkLPxLvCyIipO-4" target="oaz3JPrWkLPxLvCyIipO-11">
          <mxGeometry width="50" height="50" relative="1" as="geometry">
            <mxPoint x="660" y="110" as="sourcePoint" />
            <mxPoint x="430" y="110" as="targetPoint" />
          </mxGeometry>
        </mxCell>
        <mxCell id="CYdt1mf9dizqmsbDruAF-13" value="" style="endArrow=classic;html=1;rounded=0;exitX=0;exitY=1;exitDx=0;exitDy=0;exitPerimeter=0;entryX=0.973;entryY=0.347;entryDx=0;entryDy=0;entryPerimeter=0;" edge="1" parent="1" source="oaz3JPrWkLPxLvCyIipO-4" target="oaz3JPrWkLPxLvCyIipO-13">
          <mxGeometry width="50" height="50" relative="1" as="geometry">
            <mxPoint x="380" y="160" as="sourcePoint" />
            <mxPoint x="640" y="150" as="targetPoint" />
          </mxGeometry>
        </mxCell>
        <mxCell id="CYdt1mf9dizqmsbDruAF-14" value="" style="endArrow=classic;html=1;rounded=0;" edge="1" parent="1" source="oaz3JPrWkLPxLvCyIipO-7" target="oaz3JPrWkLPxLvCyIipO-12">
          <mxGeometry width="50" height="50" relative="1" as="geometry">
            <mxPoint x="380" y="160" as="sourcePoint" />
            <mxPoint x="430" y="110" as="targetPoint" />
          </mxGeometry>
        </mxCell>
        <mxCell id="CYdt1mf9dizqmsbDruAF-15" value="Includes" style="endArrow=classic;html=1;rounded=0;exitX=0.5;exitY=1;exitDx=0;exitDy=0;entryX=0.5;entryY=0;entryDx=0;entryDy=0;" edge="1" parent="1" source="oaz3JPrWkLPxLvCyIipO-12" target="oaz3JPrWkLPxLvCyIipO-10">
          <mxGeometry width="50" height="50" relative="1" as="geometry">
            <mxPoint x="380" y="160" as="sourcePoint" />
            <mxPoint x="430" y="110" as="targetPoint" />
          </mxGeometry>
        </mxCell>
        <mxCell id="CYdt1mf9dizqmsbDruAF-19" value="" style="edgeStyle=orthogonalEdgeStyle;rounded=0;orthogonalLoop=1;jettySize=auto;html=1;" edge="1" parent="1" source="CYdt1mf9dizqmsbDruAF-16" target="CYdt1mf9dizqmsbDruAF-18">
          <mxGeometry relative="1" as="geometry" />
        </mxCell>
        <mxCell id="CYdt1mf9dizqmsbDruAF-20" value="includes" style="edgeLabel;html=1;align=center;verticalAlign=middle;resizable=0;points=[];" vertex="1" connectable="0" parent="CYdt1mf9dizqmsbDruAF-19">
          <mxGeometry x="0.0453" relative="1" as="geometry">
            <mxPoint as="offset" />
          </mxGeometry>
        </mxCell>
        <mxCell id="CYdt1mf9dizqmsbDruAF-16" value="Select Show" style="ellipse;whiteSpace=wrap;html=1;" vertex="1" parent="1">
          <mxGeometry x="170" y="280" width="90" height="50" as="geometry" />
        </mxCell>
        <mxCell id="CYdt1mf9dizqmsbDruAF-22" value="includes" style="edgeStyle=orthogonalEdgeStyle;rounded=0;orthogonalLoop=1;jettySize=auto;html=1;" edge="1" parent="1" source="CYdt1mf9dizqmsbDruAF-18" target="CYdt1mf9dizqmsbDruAF-21">
          <mxGeometry relative="1" as="geometry" />
        </mxCell>
        <mxCell id="CYdt1mf9dizqmsbDruAF-18" value="Select Seats" style="ellipse;whiteSpace=wrap;html=1;" vertex="1" parent="1">
          <mxGeometry x="335" y="280" width="90" height="50" as="geometry" />
        </mxCell>
        <mxCell id="CYdt1mf9dizqmsbDruAF-21" value="Make Payement" style="ellipse;whiteSpace=wrap;html=1;" vertex="1" parent="1">
          <mxGeometry x="500" y="280" width="100" height="50" as="geometry" />
        </mxCell>
        <mxCell id="CYdt1mf9dizqmsbDruAF-23" value="UPI" style="ellipse;whiteSpace=wrap;html=1;" vertex="1" parent="1">
          <mxGeometry x="380" y="400" width="90" height="50" as="geometry" />
        </mxCell>
        <mxCell id="CYdt1mf9dizqmsbDruAF-24" value="Credit/Debit" style="ellipse;whiteSpace=wrap;html=1;" vertex="1" parent="1">
          <mxGeometry x="490" y="430" width="90" height="50" as="geometry" />
        </mxCell>
        <mxCell id="CYdt1mf9dizqmsbDruAF-26" value="Cash" style="ellipse;whiteSpace=wrap;html=1;" vertex="1" parent="1">
          <mxGeometry x="600" y="400" width="90" height="50" as="geometry" />
        </mxCell>
        <mxCell id="CYdt1mf9dizqmsbDruAF-27" value="extends" style="endArrow=classic;html=1;rounded=0;" edge="1" parent="1" source="CYdt1mf9dizqmsbDruAF-23" target="CYdt1mf9dizqmsbDruAF-21">
          <mxGeometry width="50" height="50" relative="1" as="geometry">
            <mxPoint x="380" y="360" as="sourcePoint" />
            <mxPoint x="430" y="310" as="targetPoint" />
          </mxGeometry>
        </mxCell>
        <mxCell id="CYdt1mf9dizqmsbDruAF-28" value="extends" style="endArrow=classic;html=1;rounded=0;exitX=0.5;exitY=0;exitDx=0;exitDy=0;entryX=0.5;entryY=1;entryDx=0;entryDy=0;" edge="1" parent="1" source="CYdt1mf9dizqmsbDruAF-24" target="CYdt1mf9dizqmsbDruAF-21">
          <mxGeometry width="50" height="50" relative="1" as="geometry">
            <mxPoint x="458" y="413" as="sourcePoint" />
            <mxPoint x="537" y="337" as="targetPoint" />
          </mxGeometry>
        </mxCell>
        <mxCell id="CYdt1mf9dizqmsbDruAF-29" value="extends" style="endArrow=classic;html=1;rounded=0;" edge="1" parent="1" source="CYdt1mf9dizqmsbDruAF-26" target="CYdt1mf9dizqmsbDruAF-21">
          <mxGeometry width="50" height="50" relative="1" as="geometry">
            <mxPoint x="545" y="440" as="sourcePoint" />
            <mxPoint x="547" y="347" as="targetPoint" />
          </mxGeometry>
        </mxCell>
      </root>
    </mxGraphModel>
  </diagram>
</mxfile>
